<svg id="Group_2351" data-name="Group 2351" xmlns="http://www.w3.org/2000/svg" xmlns:xlink="http://www.w3.org/1999/xlink" width="23.658" height="14.184" viewBox="0 0 23.658 14.184">
  <defs>
    <clipPath id="clip-path">
      <rect id="Rectangle_1550" data-name="Rectangle 1550" width="23.658" height="14.184" fill="#757575" stroke="#707070" stroke-width="0.2"/>
    </clipPath>
  </defs>
  <g id="Group_2350" data-name="Group 2350" clip-path="url(#clip-path)">
    <path id="Path_532" data-name="Path 532" d="M20.318,0h1.369a1.974,1.974,0,0,1,1.971,1.971V10a1.974,1.974,0,0,1-1.971,1.972H21.42a2.6,2.6,0,0,1-5.147,0H7.407a2.6,2.6,0,0,1-5.147,0H1.132A1.133,1.133,0,0,1,0,10.84V7.485a1.882,1.882,0,0,1,.2-.834h0l1.65-3.312h0A1.86,1.86,0,0,1,3.52,2.3H8.879V1.971A1.974,1.974,0,0,1,10.85,0H12.2m.4.788H10.851A1.184,1.184,0,0,0,9.668,1.971v9.212h6.6a2.6,2.6,0,0,1,5.147,0h.267A1.184,1.184,0,0,0,22.87,10h0V1.971A1.185,1.185,0,0,0,21.687.788h-1.78M18.846,13.4a1.82,1.82,0,1,0-1.285-.533A1.819,1.819,0,0,0,18.846,13.4Zm-14.012,0a1.82,1.82,0,1,0-1.285-.533A1.82,1.82,0,0,0,4.834,13.4ZM.789,10.84a.343.343,0,0,0,.343.343H2.261a2.6,2.6,0,0,1,5.147,0H8.879V3.093H3.52a1.074,1.074,0,0,0-.967.6L.9,7a1.086,1.086,0,0,0-.113.482Z" fill="#757575" stroke="#707070" stroke-width="0.2"/>
  </g>
</svg>
